HIERARCHY
ROOT Hips
{
	OFFSET 0.00000 0.00000 0.00000
	CHANNELS 6 Xposition Yposition Zposition Zrotation Yrotation Xrotation 
	JOINT LHipJoint
	{
		OFFSET 0 0 0
		CHANNELS 3 Zrotation Yrotation Xrotation
		JOINT LeftUpLeg
		{
			OFFSET 1.36306 -1.79463 0.83929
			CHANNELS 3 Zrotation Yrotation Xrotation
			JOINT LeftLeg
			{
				OFFSET 2.44811 -6.72613 0.00000
				CHANNELS 3 Zrotation Yrotation Xrotation
				JOINT LeftFoot
				{
					OFFSET 2.56220 -7.03959 0.00000
					CHANNELS 3 Zrotation Yrotation Xrotation
					JOINT LeftToeBase
					{
						OFFSET 0.15764 -0.43311 2.32255
						CHANNELS 3 Zrotation Yrotation Xrotation
						End Site
						{
							OFFSET 0.00000 -0.00000 1.18966
						}
					}
				}
			}
		}
	}
	JOINT RHipJoint
	{
		OFFSET 0 0 0
		CHANNELS 3 Zrotation Yrotation Xrotation
		JOINT RightUpLeg
		{
			OFFSET -1.30552 -1.79463 0.83929
			CHANNELS 3 Zrotation Yrotation Xrotation
			JOINT RightLeg
			{
				OFFSET -2.54253 -6.98555 0.00000
				CHANNELS 3 Zrotation Yrotation Xrotation
				JOINT RightFoot
				{
					OFFSET -2.56826 -7.05623 0.00000
					CHANNELS 3 Zrotation Yrotation Xrotation
					JOINT RightToeBase
					{
						OFFSET -0.16473 -0.45259 2.36315
						CHANNELS 3 Zrotation Yrotation Xrotation
						End Site
						{
							OFFSET -0.00000 -0.00000 1.21082
						}
					}
				}
			}
		}
	}
	JOINT LowerBack
	{
		OFFSET 0 0 0
		CHANNELS 3 Zrotation Yrotation Xrotation
		JOINT Spine
		{
			OFFSET 0.02827 2.03559 -0.19338
			CHANNELS 3 Zrotation Yrotation Xrotation
			JOINT Spine1
			{
				OFFSET 0.05672 2.04885 -0.04275
				CHANNELS 3 Zrotation Yrotation Xrotation
				JOINT Neck
				{
					OFFSET 0 0 0
					CHANNELS 3 Zrotation Yrotation Xrotation
					JOINT Neck1
					{
						OFFSET -0.05417 1.74624 0.17202
						CHANNELS 3 Zrotation Yrotation Xrotation
						JOINT Head
						{
							OFFSET 0.10407 1.76136 -0.12397
							CHANNELS 3 Zrotation Yrotation Xrotation
							End Site
							{
								OFFSET 0.03720 1.77044 -0.06241
							}
						}
					}
				}
				JOINT LeftShoulder
				{
					OFFSET 0 0 0
					CHANNELS 3 Zrotation Yrotation Xrotation
					JOINT LeftArm
					{
						OFFSET 3.36241 1.20089 -0.31121
						CHANNELS 3 Zrotation Yrotation Xrotation
						JOINT LeftForeArm
						{
							OFFSET 4.98300 -0.00000 -0.00000
							CHANNELS 3 Zrotation Yrotation Xrotation
							JOINT LeftHand
							{
								OFFSET 3.48356 -0.00000 -0.00000
								CHANNELS 3 Zrotation Yrotation Xrotation
								JOINT LeftFingerBase
								{
									OFFSET 0 0 0
									CHANNELS 3 Zrotation Yrotation Xrotation
									JOINT LeftHandIndex1
									{
										OFFSET 0.71526 -0.00000 -0.00000
										CHANNELS 3 Zrotation Yrotation Xrotation
										End Site
										{
											OFFSET 0.57666 -0.00000 -0.00000
										}
									}
								}
								JOINT LThumb
								{
									OFFSET 0 0 0
									CHANNELS 3 Zrotation Yrotation Xrotation
									End Site
									{
										OFFSET 0.58547 -0.00000 0.58547
									}
								}
							}
						}
					}
				}
				JOINT RightShoulder
				{
					OFFSET 0 0 0
					CHANNELS 3 Zrotation Yrotation Xrotation
					JOINT RightArm
					{
						OFFSET -3.13660 1.37405 -0.40465
						CHANNELS 3 Zrotation Yrotation Xrotation
						JOINT RightForeArm
						{
							OFFSET -5.24190 -0.00000 -0.00000
							CHANNELS 3 Zrotation Yrotation Xrotation
							JOINT RightHand
							{
								OFFSET -3.44417 -0.00000 -0.00000
								CHANNELS 3 Zrotation Yrotation Xrotation
								JOINT RightFingerBase
								{
									OFFSET 0 0 0
									CHANNELS 3 Zrotation Yrotation Xrotation
									JOINT RightHandIndex1
									{
										OFFSET -0.62253 -0.00000 -0.00000
										CHANNELS 3 Zrotation Yrotation Xrotation
										End Site
										{
											OFFSET -0.50190 -0.00000 -0.00000
										}
									}
								}
								JOINT RThumb
								{
									OFFSET 0 0 0
									CHANNELS 3 Zrotation Yrotation Xrotation
									End Site
									{
										OFFSET -0.50956 -0.00000 0.50956
									}
								}
							}
						}
					}
				}
			}
		}
	}
}
MOTION
Frames: 11
Frame Time: 0.00851064
0.00 0.00 0.00 -175.2560 4.0815 167.2590 0.0000 0.0000 0.0000 1.4743 -3.6872 -50.8773 27.6131 18.5495 112.7900 0.9112 -12.9513 -18.0712 1.5691 -7.9042 -22.4234 0.0000 0.0000 0.0000 29.5029 -8.3842 14.4922 0.0000 0.0000 0.0000 -0.4343 -18.0180 16.3528 -0.7440 -5.5097 15.3683 3.9146 0.4058 25.2367 1.8574 2.4031 -6.7475 -1.1029 0.6714 -21.8120 -12.2047 -3.3870 3.3889 9.9283 -4.8606 10.0656 4.9601 -2.3323 2.9667 -0.0000 -0.0000 0.0000 69.6201 -46.4860 -87.5677 16.7888 -26.5785 -3.9924 -0.0000 -0.0000 19.9108 23.8013 -7.4230 -3.2615 -7.1250 0.0000 -0.0000 -2.1893 21.8777 1.2167 -0.0000 -0.0000 0.0000 -79.2597 52.7818 -114.7554 -23.9898 35.1535 -7.7007 0.0000 0.0000 29.0731 -25.8387 -18.4093 8.6948 7.1250 -0.0000 -0.0000 2.2840 -50.2612 -0.2963
0.00 0.00 0.00 -176.2260 3.6486 162.3250 0.0000 0.0000 0.0000 2.2623 -2.2187 -64.2944 28.4856 18.1777 115.5589 1.3951 -14.5190 -22.0271 2.1457 -9.1631 -26.3068 0.0000 0.0000 0.0000 28.0551 -5.2713 13.2137 -0.4868 -4.4739 12.4138 -0.5915 -26.7233 22.3532 -1.8354 -8.5145 24.2881 3.4890 0.7756 27.5382 1.2552 2.6097 -5.1978 -1.6597 0.7585 -21.0250 -10.8964 -3.2547 0.7262 9.0348 -5.7927 12.1290 4.3506 -3.2545 4.0430 -0.0000 -0.0000 0.0000 70.7374 -53.0817 -102.4176 21.3854 -32.2755 -6.2545 -0.0000 -0.0000 33.4081 19.9403 -9.1587 -3.3049 -7.1250 0.0000 -0.0000 -5.0100 20.2657 2.9758 -0.0000 -0.0000 0.0000 -78.5705 55.7841 -117.9768 -27.6348 38.7778 -9.8941 0.0000 0.0000 35.3535 -22.9624 -19.1227 7.9022 7.1250 -0.0000 -0.0000 5.3049 -50.5396 -0.7260
0.00 0.00 0.00 -176.3390 4.2417 158.6730 0.0000 0.0000 0.0000 3.2041 -2.5760 -75.2651 28.0112 18.3859 114.0466 1.8249 -11.0186 -24.3252 2.2131 -9.2966 -26.7275 0.0000 0.0000 0.0000 27.5802 -1.9557 8.6553 -2.4870 -9.8142 28.3771 0.1684 -33.4523 22.9412 -3.3323 -11.2145 33.0067 4.2355 0.7417 29.1216 1.2406 2.9102 -4.0896 -2.2394 0.8364 -20.3671 -10.2527 -3.4406 -2.3049 8.2462 -5.9446 15.0382 3.9232 -3.3172 5.4215 -0.0000 -0.0000 0.0000 69.7910 -55.9103 -106.0924 24.0082 -35.1730 -7.7113 -0.0000 -0.0000 37.5701 18.2174 -10.1766 -3.3280 -7.1250 0.0000 -0.0000 -6.2440 19.3120 3.8505 -0.0000 -0.0000 0.0000 -76.6986 56.8667 -114.3417 -29.1942 40.1926 -10.8858 0.0000 0.0000 34.2780 -22.7659 -20.4344 8.3355 7.1250 -0.0000 -0.0000 5.8712 -51.8884 -0.9987
0.00 0.00 0.00 -177.3200 5.1677 154.4440 0.0000 0.0000 0.0000 3.4356 -3.6806 -83.0790 26.2670 19.0311 108.6125 1.9408 -10.2148 -25.0265 1.5487 -7.8549 -22.2743 0.0000 0.0000 0.0000 26.0830 -0.3844 3.0454 -6.6087 -14.9933 47.3784 3.9034 -38.0137 6.9842 -4.7346 -13.0786 39.6632 4.5187 0.5238 31.0664 0.9568 2.8276 -2.7373 -2.7051 0.8345 -19.5866 -10.0036 -3.3152 -5.2376 7.9965 -5.5792 16.9094 3.7813 -3.0841 6.4685 -0.0000 -0.0000 0.0000 67.1404 -56.4574 -103.9583 25.5172 -36.7279 -8.5973 -0.0000 -0.0000 37.9794 17.4416 -10.2707 -3.2062 -7.1250 0.0000 -0.0000 -6.7943 19.2655 4.2015 -0.0000 -0.0000 0.0000 -76.4340 57.3200 -112.5879 -29.8826 40.7925 -11.3328 0.0000 0.0000 32.7461 -23.0592 -21.4675 8.8551 7.1250 -0.0000 -0.0000 5.8930 -53.0269 -1.1670
0.00 0.00 0.00 -177.0370 6.7279 150.1360 0.0000 0.0000 0.0000 5.5830 -5.2807 -88.4492 23.7876 19.6525 101.1363 1.9963 -7.9454 -25.3674 2.3551 -9.5695 -27.5935 0.0000 0.0000 0.0000 25.7139 0.5752 -3.0869 -12.2650 -18.5004 66.8263 4.1606 -33.6463 -8.6585 -5.4165 -13.8380 42.5922 6.1116 0.1708 33.0604 0.8876 3.2029 -2.0263 -3.8604 0.8802 -19.5102 -8.9011 -3.1949 -5.2200 7.7075 -5.7221 18.0686 3.4906 -3.1763 6.8057 0.0000 -0.0000 0.0000 65.1771 -58.6051 -102.9735 27.2179 -38.3862 -9.6341 -0.0000 -0.0000 39.2336 16.1878 -10.7430 -3.0974 -7.1250 0.0000 -0.0000 -7.6779 18.8592 4.8273 0.0000 -0.0000 0.0000 -75.5551 59.1242 -111.9917 -30.9431 41.6882 -12.0320 0.0000 0.0000 32.5717 -22.6945 -21.9324 8.8779 7.1250 -0.0000 -0.0000 6.4179 -53.4454 -1.3373
0.00 0.00 0.00 -179.0810 6.1640 145.7150 0.0000 0.0000 0.0000 3.8149 -7.7669 -90.2454 20.4675 19.9948 91.3671 1.9967 -7.1983 -25.4028 2.6746 -10.1487 -29.4595 0.0000 0.0000 0.0000 20.9280 0.1823 -11.0646 -18.4292 -19.9407 85.4029 2.1918 -25.1078 -9.6665 -4.8488 -13.2114 40.1652 5.0357 0.2097 35.2175 0.6774 2.9721 -1.9291 -3.4702 0.8594 -20.4488 -10.0994 -2.6739 -2.4814 7.7142 -5.4314 18.5622 3.7582 -3.2949 6.4824 -0.0000 -0.0000 0.0000 61.9226 -62.0314 -102.7525 28.6999 -39.7526 -10.5683 -0.0000 -0.0000 41.6420 14.8139 -11.7193 -3.0749 -7.1250 0.0000 -0.0000 -8.6313 17.9496 5.6154 -0.0000 -0.0000 0.0000 -77.2739 62.5807 -114.7264 -32.3238 42.8038 -12.9603 0.0000 0.0000 35.4345 -20.7518 -21.7096 7.9784 7.1250 -0.0000 -0.0000 8.3140 -52.8532 -1.6154
0.00 0.00 0.00 -179.3440 7.0909 140.8530 0.0000 0.0000 0.0000 3.9606 -8.6829 -89.6224 17.2230 19.8141 81.8564 2.0654 -8.7771 -25.7995 2.8056 -10.3735 -30.1948 0.0000 0.0000 0.0000 18.4259 -0.7192 -19.9438 -24.0346 -19.6052 101.8714 0.8025 -15.9960 -9.6559 -3.5636 -11.5558 34.1783 5.5158 0.0594 37.8622 1.1040 3.4281 -1.3010 -3.5291 1.0882 -20.7447 -10.0923 -2.3262 -0.9150 6.9516 -5.1151 18.6736 3.5534 -3.2876 6.1988 0.0000 0.0000 0.0000 59.4492 -63.7852 -101.4869 29.8480 -40.7627 -11.3102 -0.0000 -0.0000 42.2822 13.6006 -11.9115 -2.8587 -7.1250 0.0000 -0.0000 -9.4733 17.8330 6.2026 0.0000 0.0000 0.0000 -78.1612 64.7386 -116.5854 -34.1647 44.2064 -14.2278 0.0000 0.0000 37.8045 -18.3097 -21.6430 6.9583 7.1250 -0.0000 -0.0000 10.7309 -52.3477 -1.9592
0.00 0.00 0.00 -180.4760 7.2546 134.5530 0.0000 0.0000 0.0000 1.9930 -9.3667 -87.3202 13.5264 18.9640 70.7527 1.8212 -11.6581 -24.3619 3.3426 -11.2300 -33.0595 0.0000 0.0000 0.0000 14.9237 -3.6498 -35.8918 -29.7232 -17.5626 119.5905 -0.4152 -3.3406 -13.8597 -2.3098 -9.4837 27.3203 5.3321 -0.1834 39.5092 1.0114 3.3396 -0.1880 -3.4920 1.2366 -19.8665 -10.2421 -1.8441 1.0532 6.7841 -4.8995 19.1400 3.5647 -3.3643 5.9842 0.0000 -0.0000 0.0000 56.4544 -64.9255 -98.4332 31.1142 -41.8295 -12.1459 -0.0000 -0.0000 41.9776 11.6866 -11.8272 -2.4276 -7.1250 0.0000 -0.0000 -10.8048 18.0322 7.0562 0.0000 -0.0000 0.0000 -79.1084 66.7516 -118.1743 -36.2116 45.6582 -15.6736 0.0000 0.0000 39.4100 -15.5342 -21.7491 5.8806 7.1250 -0.0000 -0.0000 13.5061 -51.9726 -2.3541
0.00 0.00 0.00 -182.0280 6.4382 115.4860 0.0000 0.0000 0.0000 -2.9509 -8.0352 -81.3752 16.8644 19.7626 80.7973 1.7528 -6.9909 -23.7566 3.1250 -10.8947 -31.9254 0.0000 0.0000 0.0000 19.5348 5.1488 -71.3484 -30.5222 -17.1055 122.2718 -2.4373 7.9054 -28.1341 -0.0496 -1.4368 3.9515 3.6453 -0.4034 43.6484 0.5512 2.9596 1.6582 -3.0383 1.5261 -19.1165 -8.5781 -0.6684 7.7816 6.1145 -5.1382 21.3464 3.1476 -4.1112 5.5167 0.0000 0.0000 0.0000 53.3321 -69.3060 -92.5056 31.0965 -41.8149 -12.1342 -0.0000 -0.0000 41.0805 5.3588 -12.1599 -1.1319 -7.1250 0.0000 -0.0000 -15.1391 18.0007 10.0781 0.0000 0.0000 0.0000 -68.5787 72.5262 -108.0850 -38.9945 47.4628 -17.6948 0.0000 0.0000 38.5524 -8.2738 -23.3023 3.2923 7.1250 -0.0000 -0.0000 21.2524 -52.2307 -3.9282
0.00 0.00 0.00 -181.5550 8.0937 108.7310 0.0000 0.0000 0.0000 -2.8981 -4.3331 -83.0703 22.2633 19.8767 96.6306 1.5165 -11.0736 -22.2387 0.2192 -3.0140 -8.3178 0.0000 0.0000 0.0000 19.5287 13.5203 -74.9448 -26.2858 -19.0251 108.6703 -2.6628 8.5075 -29.4300 -0.0019 -0.2804 0.7703 5.5904 -0.9262 45.1202 0.1644 3.3828 1.6136 -4.7578 1.5305 -19.5077 -7.4167 -0.5379 10.4229 6.9583 -5.8248 21.9339 3.2453 -4.6343 5.3198 -0.0000 0.0000 0.0000 56.2547 -70.6575 -92.8609 30.0808 -40.9626 -11.4626 -0.0000 -0.0000 39.9424 2.0791 -12.7745 -0.4599 -7.1250 0.0000 -0.0000 -17.3021 17.5163 11.8472 -0.0000 0.0000 0.0000 -58.7759 73.2536 -98.6154 -38.4388 47.1173 -17.2864 0.0000 0.0000 37.1685 -4.9652 -23.8312 2.0104 7.1250 -0.0000 -0.0000 24.6739 -52.1578 -4.5768
0.00 0.00 0.00 -179.9880 7.1464 101.9530 0.0000 0.0000 0.0000 -0.7104 -2.4833 -86.4206 27.4204 18.6251 112.1855 0.4384 -14.3232 -14.5387 0.2530 -3.2362 -8.9370 0.0000 0.0000 0.0000 21.9737 13.8983 -75.0745 -30.1626 -17.3174 121.0566 -2.3350 1.3576 -28.5565 -0.0000 -0.0117 0.0321 3.2503 -0.6038 45.7470 0.7234 2.8045 1.7427 -2.6154 1.5473 -19.7364 -6.4694 -5.3031 12.8944 4.5203 -5.0290 23.1888 2.6487 -1.1088 5.3073 0.0000 0.0000 0.0000 63.1539 -69.9502 -97.3421 25.4840 -36.6946 -8.5775 -0.0000 -0.0000 38.6321 0.2161 -13.7143 -0.0512 -7.1250 0.0000 -0.0000 -18.4505 16.6706 13.0845 0.0000 0.0000 0.0000 -57.4842 73.2516 -97.3939 -34.9428 44.7712 -14.7730 0.0000 0.0000 36.6593 -1.3333 -23.4035 0.5297 7.1250 -0.0000 -0.0000 27.7914 -51.1760 -4.5258
